<?xml version="1.0" encoding="UTF-8" standalone="no"?>
<!-- Created with Inkscape (http://www.inkscape.org/) -->

<svg
   xmlns:osb="http://www.openswatchbook.org/uri/2009/osb"
   xmlns:dc="http://purl.org/dc/elements/1.1/"
   xmlns:cc="http://creativecommons.org/ns#"
   xmlns:rdf="http://www.w3.org/1999/02/22-rdf-syntax-ns#"
   xmlns:svg="http://www.w3.org/2000/svg"
   xmlns="http://www.w3.org/2000/svg"
   xmlns:xlink="http://www.w3.org/1999/xlink"
   xmlns:sodipodi="http://sodipodi.sourceforge.net/DTD/sodipodi-0.dtd"
   xmlns:inkscape="http://www.inkscape.org/namespaces/inkscape"
   width="128"
   height="128"
   id="svg2"
   version="1.1"
   inkscape:version="0.48.4 r9939"
   sodipodi:docname="Logo_Nubilo.svg"
   inkscape:export-filename="/home/juergen/Desktop/Nubilo.png"
   inkscape:export-xdpi="90"
   inkscape:export-ydpi="90">
  <title
     id="title5604">Logo Nubilo</title>
  <defs
     id="defs4">
    <linearGradient
       id="linearGradient3838"
       osb:paint="solid">
      <stop
         style="stop-color:#ee7600;stop-opacity:1;"
         offset="0"
         id="stop3840" />
    </linearGradient>
    <linearGradient
       inkscape:collect="always"
       id="linearGradient3796">
      <stop
         style="stop-color:#1e1e1e;stop-opacity:1"
         offset="0"
         id="stop3798" />
      <stop
         style="stop-color:#000000;stop-opacity:0;"
         offset="1"
         id="stop3800" />
    </linearGradient>
    <inkscape:perspective
       sodipodi:type="inkscape:persp3d"
       inkscape:vp_x="11.75 : 68.5 : 1"
       inkscape:vp_y="0 : 1000 : 0"
       inkscape:vp_z="125.25 : 96 : 1"
       inkscape:persp3d-origin="64 : 42.666667 : 1"
       id="perspective3878" />
    <linearGradient
       id="linearGradient3853">
      <stop
         style="stop-color:#b0c4de;stop-opacity:1;"
         offset="0"
         id="stop3855" />
      <stop
         style="stop-color:#ffffff;stop-opacity:1"
         offset="1"
         id="stop3857" />
    </linearGradient>
    <linearGradient
       inkscape:collect="always"
       xlink:href="#linearGradient3853"
       id="linearGradient3873"
       gradientUnits="userSpaceOnUse"
       gradientTransform="matrix(0.32485618,0,0.06758497,0.37942135,36.680037,54.914847)"
       x1="39"
       y1="71.5"
       x2="97.25"
       y2="86" />
    <linearGradient
       inkscape:collect="always"
       xlink:href="#linearGradient3853"
       id="linearGradient3875"
       gradientUnits="userSpaceOnUse"
       gradientTransform="matrix(-0.30000001,0,0,0.30000001,91.225516,38.552923)"
       x1="39"
       y1="71.5"
       x2="97.25"
       y2="86" />
    <filter
       inkscape:collect="always"
       id="filter5557">
      <feGaussianBlur
         inkscape:collect="always"
         stdDeviation="0.4552002"
         id="feGaussianBlur5559" />
    </filter>
    <linearGradient
       inkscape:collect="always"
       xlink:href="#linearGradient3796"
       id="linearGradient3802"
       x1="65.01767"
       y1="1051.9664"
       x2="64.749115"
       y2="924.4046"
       gradientUnits="userSpaceOnUse" />
    <filter
       inkscape:collect="always"
       id="filter3804">
      <feGaussianBlur
         inkscape:collect="always"
         stdDeviation="0.71245532"
         id="feGaussianBlur3806" />
    </filter>
  </defs>
  <sodipodi:namedview
     id="base"
     pagecolor="#ffffff"
     bordercolor="#666666"
     borderopacity="1.0"
     inkscape:pageopacity="0.0"
     inkscape:pageshadow="2"
     inkscape:zoom="2.83"
     inkscape:cx="43.117489"
     inkscape:cy="64.651443"
     inkscape:document-units="px"
     inkscape:current-layer="g3022"
     showgrid="false"
     inkscape:window-width="909"
     inkscape:window-height="929"
     inkscape:window-x="2278"
     inkscape:window-y="58"
     inkscape:window-maximized="0" />
  <metadata
     id="metadata7">
    <rdf:RDF>
      <cc:Work
         rdf:about="">
        <dc:format>image/svg+xml</dc:format>
        <dc:type
           rdf:resource="http://purl.org/dc/dcmitype/StillImage" />
        <dc:title>Logo Nubilo</dc:title>
        <cc:license
           rdf:resource="" />
        <dc:date>2013-10-05</dc:date>
        <dc:creator>
          <cc:Agent>
            <dc:title>Jürgen Fickel</dc:title>
          </cc:Agent>
        </dc:creator>
        <dc:contributor>
          <cc:Agent>
            <dc:title>Alexander Ellwein</dc:title>
          </cc:Agent>
        </dc:contributor>
        <dc:language>eo</dc:language>
      </cc:Work>
    </rdf:RDF>
  </metadata>
  <g
     style="display:inline"
     transform="translate(0,-924.36218)"
     id="g3022"
     inkscape:groupmode="layer"
     inkscape:label="Hintergrund">
    <rect
       style="fill:#dcdcdc;fill-opacity:1;stroke:url(#linearGradient3802);opacity:1"
       id="rect3026"
       width="128"
       height="128"
       x="0"
       y="924.36218"
       rx="15"
       ry="15" />
  </g>
  <g
     inkscape:label="Haus"
     inkscape:groupmode="layer"
     id="layer1"
     transform="translate(0,-924.36218)"
     style="display:none">
    <path
       id="path3761"
       style="fill:none;stroke:#007eff;stroke-width:1.50000072;stroke-linecap:butt;stroke-linejoin:miter;stroke-miterlimit:4;stroke-opacity:1;stroke-dasharray:none;filter:url(#filter3804)"
       d="m 45.61199,934.48625 -39.0000369,39.25 m 37.9842219,-39.25 39.000038,39.25 m -65.132162,-11.22573 53.45579,0 0,53.31498 -53.45579,0 z"
       inkscape:connector-curvature="0" />
  </g>
  <g
     style="display:inline"
     transform="translate(0,-924.36218)"
     id="g3808"
     inkscape:groupmode="layer"
     inkscape:label="Haus Kopie">
    <path
       style="fill:none;stroke:#4a708b;stroke-width:1.50000072000000007;stroke-linecap:butt;stroke-linejoin:miter;stroke-miterlimit:4;stroke-opacity:1;stroke-dasharray:none"
       d="m 18.464051,962.51052 53.45579,0 0,53.31498 -53.45579,0 z"
       id="path3810"
       inkscape:connector-curvature="0" />
    <path
       style="fill:#ee7600;fill-opacity:1;stroke:#ee7400;stroke-width:3;stroke-linecap:butt;stroke-linejoin:miter;stroke-miterlimit:4;stroke-opacity:1;stroke-dasharray:none"
       d="M 46.012037,931.58618 7.012,970.83618"
       id="path3822"
       inkscape:connector-curvature="0" />
    <path
       style="fill:#e6e6e6;fill-opacity:1;stroke:#ee7400;stroke-width:3;stroke-linecap:butt;stroke-linejoin:miter;stroke-miterlimit:4;stroke-opacity:1;stroke-dasharray:none"
       d="m 44.096,931.58618 39.000038,39.25"
       id="path3820"
       inkscape:connector-curvature="0" />
  </g>
  <g
     inkscape:groupmode="layer"
     id="layer6"
     inkscape:label="Wolke_Alexander"
     style="display:inline">
    <path
       style="fill:#ffffff;fill-opacity:1;stroke:#4a708b;stroke-width:7;stroke-linecap:round;stroke-linejoin:round;stroke-miterlimit:4;stroke-opacity:1;stroke-dasharray:none;stroke-dashoffset:0;display:inline"
       d="m 218.04305,131.7939 35,0 c 0,0 50,-5 40,-39.999997 -10,-35 -32.0943,-17.09431 -40,-25 -5,-5 -5,-30.000001 -35,-15.000001 -9.03943,4.519721 10,-15 0,-45.0000001 -3.53553,-10.6066 -20.67968,-33.1359399 -55,-39.9999999 -50,-10 -64.999998,34.9999999 -99.999998,45 -45.67921,-10.1496401 -70.0000002,-15.0000001 -85.000002,12 -15,27 5,33.000001 0,43.000001 -7.07107,14.14214 -15,-10 -35,0 -22.80351,11.40176 -13.93655,21.31219 -25,25 -15,5 -20,14.999997 -10,29.999997 6.20174,9.3026 31.36777,10 55,10 l 139.5,0 z"
       id="path3035"
       inkscape:connector-curvature="0"
       sodipodi:nodetypes="cszssssczssssscc"
       transform="matrix(0.24081099,0,0,0.24081075,50.103345,63.739136)" />
  </g>
  <g
     inkscape:groupmode="layer"
     id="layer7"
     inkscape:label="Schriftzug"
     style="display:none">
    <text
       xml:space="preserve"
       style="font-size:40.00011063px;font-style:normal;font-variant:normal;font-weight:bold;font-stretch:normal;text-align:center;line-height:100%;letter-spacing:0px;word-spacing:0px;writing-mode:lr-tb;text-anchor:middle;fill:#1e1e1e;fill-opacity:1;stroke:none;display:inline;font-family:Linux Biolinum Keyboard;-inkscape-font-specification:Linux Biolinum Keyboard Bold"
       x="63.537907"
       y="120.07835"
       id="text5479"
       sodipodi:linespacing="100%"
       transform="scale(1.0000028,0.9999972)"><tspan
         sodipodi:role="line"
         id="tspan5481"
         x="63.537907"
         y="120.07835"
         style="font-size:22.00006104px;font-style:normal;font-variant:normal;font-weight:normal;font-stretch:normal;fill:#1e1e1e;fill-opacity:1;stroke:none;font-family:DejaVu Sans;-inkscape-font-specification:DejaVu Sans">NUBILO</tspan></text>
  </g>
  <g
     style="display:inline"
     inkscape:label="Schriftzug_als_Pfad"
     id="g3019"
     inkscape:groupmode="layer">
    <g
       transform="scale(1.0000028,0.9999972)"
       style="font-size:40.00011063px;font-style:normal;font-variant:normal;font-weight:bold;font-stretch:normal;text-align:center;line-height:100%;letter-spacing:0px;word-spacing:0px;writing-mode:lr-tb;text-anchor:middle;fill:#1e1e1e;fill-opacity:1;stroke:none;display:inline;font-family:Linux Biolinum Keyboard;-inkscape-font-specification:Linux Biolinum Keyboard Bold"
       id="text3021">
      <path
         d="m 24.232134,104.04022 2.921883,0 7.111347,13.41703 0,-13.41703 2.105475,0 0,16.03813 -2.921883,0 -7.111348,-13.41703 0,13.41703 -2.105474,0 0,-16.03813"
         style="font-size:22.00006104px;font-weight:normal;fill:#1e1e1e;font-family:DejaVu Sans;-inkscape-font-specification:DejaVu Sans"
         id="path3026"
         inkscape:connector-curvature="0" />
      <path
         d="m 40.44214,104.04022 2.18067,0 0,9.74319 c -4e-6,1.71876 0.31152,2.95769 0.934573,3.7168 0.623043,0.75196 1.63281,1.12794 3.029305,1.12794 1.389317,0 2.395504,-0.37598 3.018563,-1.12794 0.623037,-0.75911 0.934561,-1.99804 0.934573,-3.7168 l 0,-9.74319 2.18067,0 0,10.01174 c -1.4e-5,2.09116 -0.519221,3.67026 -1.557622,4.73732 -1.031264,1.06706 -2.556657,1.60059 -4.576184,1.60059 -2.026704,0 -3.559259,-0.53353 -4.597669,-1.60059 -1.031255,-1.06706 -1.546881,-2.64616 -1.546879,-4.73732 l 0,-10.01174"
         style="font-size:22.00006104px;font-weight:normal;fill:#1e1e1e;font-family:DejaVu Sans;-inkscape-font-specification:DejaVu Sans"
         id="path3028"
         inkscape:connector-curvature="0" />
      <path
         d="m 58.972465,112.41915 0,5.87599 3.480479,0 c 1.167312,0 2.030269,-0.23991 2.588874,-0.71973 0.565746,-0.48698 0.848624,-1.22819 0.848635,-2.22364 -1.1e-5,-1.0026 -0.282889,-1.74023 -0.848635,-2.2129 -0.558605,-0.47981 -1.421562,-0.71972 -2.588874,-0.71972 l -3.480479,0 m 0,-6.59573 0,4.834 3.211923,0 c 1.059891,1e-5 1.847652,-0.19693 2.363288,-0.59082 0.522778,-0.40103 0.784171,-1.00976 0.784182,-1.82618 -1.1e-5,-0.80923 -0.261404,-1.41438 -0.784182,-1.81543 -0.515636,-0.40103 -1.303397,-0.60155 -2.363288,-0.60157 l -3.211923,0 m -2.169927,-1.7832 5.542984,0 c 1.654292,10e-6 2.929034,0.34376 3.824229,1.03125 0.895172,0.68751 1.342764,1.66506 1.342777,2.93262 -1.3e-5,0.98114 -0.22918,1.76174 -0.687502,2.34181 -0.458346,0.58009 -1.131524,0.94174 -2.019537,1.08496 1.06705,0.22918 1.894199,0.709 2.481453,1.43946 0.594389,0.72331 0.89159,1.62924 0.891604,2.71778 -1.4e-5,1.4323 -0.486994,2.53875 -1.460942,3.31934 -0.973972,0.78061 -2.359717,1.17091 -4.157238,1.17091 l -5.757828,0 0,-16.03813"
         style="font-size:22.00006104px;font-weight:normal;fill:#1e1e1e;font-family:DejaVu Sans;-inkscape-font-specification:DejaVu Sans"
         id="path3030"
         inkscape:connector-curvature="0" />
      <path
         d="m 71.884607,104.04022 2.169928,0 0,16.03813 -2.169928,0 0,-16.03813"
         style="font-size:22.00006104px;font-weight:normal;fill:#1e1e1e;font-family:DejaVu Sans;-inkscape-font-specification:DejaVu Sans"
         id="path3032"
         inkscape:connector-curvature="0" />
      <path
         d="m 78.372907,104.04022 2.169928,0 0,14.21195 7.809592,0 0,1.82618 -9.97952,0 0,-16.03813"
         style="font-size:22.00006104px;font-weight:normal;fill:#1e1e1e;font-family:DejaVu Sans;-inkscape-font-specification:DejaVu Sans"
         id="path3034"
         inkscape:connector-curvature="0" />
      <path
         d="m 96.355382,105.5119 c -1.575533,1e-5 -2.82879,0.58725 -3.759776,1.76172 -0.923835,1.1745 -1.38575,2.77509 -1.385747,4.80177 -3e-6,2.01955 0.461912,3.61656 1.385747,4.79103 0.930986,1.17449 2.184243,1.76173 3.759776,1.76173 1.575515,0 2.82161,-0.58724 3.738288,-1.76173 0.92382,-1.17447 1.38574,-2.77148 1.38575,-4.79103 -1e-5,-2.02668 -0.46193,-3.62727 -1.38575,-4.80177 -0.916678,-1.17447 -2.162773,-1.76171 -3.738288,-1.76172 m 0,-1.76172 c 2.248693,1e-5 4.046218,0.75555 5.392588,2.2666 1.34635,1.50393 2.01953,3.52346 2.01954,6.05861 -1e-5,2.52801 -0.67319,4.54755 -2.01954,6.05861 -1.34637,1.50392 -3.143895,2.25587 -5.392588,2.25587 -2.255872,0 -4.060563,-0.75195 -5.414078,-2.25587 -1.34636,-1.5039 -2.019538,-3.52344 -2.019537,-6.05861 -10e-7,-2.53515 0.673177,-4.55468 2.019537,-6.05861 1.353515,-1.51105 3.158206,-2.26659 5.414078,-2.2666"
         style="font-size:22.00006104px;font-weight:normal;fill:#1e1e1e;font-family:DejaVu Sans;-inkscape-font-specification:DejaVu Sans"
         id="path3036"
         inkscape:connector-curvature="0" />
    </g>
  </g>
</svg>
