<?xml version="1.0" encoding="UTF-8" standalone="no"?>
<!-- Created with Inkscape (http://www.inkscape.org/) -->

<svg
   xmlns:osb="http://www.openswatchbook.org/uri/2009/osb"
   xmlns:dc="http://purl.org/dc/elements/1.1/"
   xmlns:cc="http://creativecommons.org/ns#"
   xmlns:rdf="http://www.w3.org/1999/02/22-rdf-syntax-ns#"
   xmlns:svg="http://www.w3.org/2000/svg"
   xmlns="http://www.w3.org/2000/svg"
   xmlns:xlink="http://www.w3.org/1999/xlink"
   xmlns:sodipodi="http://sodipodi.sourceforge.net/DTD/sodipodi-0.dtd"
   xmlns:inkscape="http://www.inkscape.org/namespaces/inkscape"
   width="128"
   height="128"
   id="svg2"
   version="1.1"
   inkscape:version="0.48.4 r9939"
   sodipodi:docname="Logo_01.svg"
   inkscape:export-filename="/home/juergen/Desktop/Nubilo.png"
   inkscape:export-xdpi="90"
   inkscape:export-ydpi="90">
  <title
     id="title5604">Logo Nubilo</title>
  <defs
     id="defs4">
    <linearGradient
       id="linearGradient3838"
       osb:paint="solid">
      <stop
         style="stop-color:#ee7600;stop-opacity:1;"
         offset="0"
         id="stop3840" />
    </linearGradient>
    <linearGradient
       inkscape:collect="always"
       id="linearGradient3796">
      <stop
         style="stop-color:#000000;stop-opacity:1;"
         offset="0"
         id="stop3798" />
      <stop
         style="stop-color:#000000;stop-opacity:0;"
         offset="1"
         id="stop3800" />
    </linearGradient>
    <inkscape:perspective
       sodipodi:type="inkscape:persp3d"
       inkscape:vp_x="11.75 : 68.5 : 1"
       inkscape:vp_y="0 : 1000 : 0"
       inkscape:vp_z="125.25 : 96 : 1"
       inkscape:persp3d-origin="64 : 42.666667 : 1"
       id="perspective3878" />
    <linearGradient
       id="linearGradient3853">
      <stop
         style="stop-color:#b0c4de;stop-opacity:1;"
         offset="0"
         id="stop3855" />
      <stop
         style="stop-color:#ffffff;stop-opacity:1"
         offset="1"
         id="stop3857" />
    </linearGradient>
    <linearGradient
       inkscape:collect="always"
       xlink:href="#linearGradient3853"
       id="linearGradient3873"
       gradientUnits="userSpaceOnUse"
       gradientTransform="matrix(0.32485618,0,0.06758497,0.37942135,36.680037,54.914847)"
       x1="39"
       y1="71.5"
       x2="97.25"
       y2="86" />
    <linearGradient
       inkscape:collect="always"
       xlink:href="#linearGradient3853"
       id="linearGradient3875"
       gradientUnits="userSpaceOnUse"
       gradientTransform="matrix(-0.30000001,0,0,0.30000001,91.225516,38.552923)"
       x1="39"
       y1="71.5"
       x2="97.25"
       y2="86" />
    <filter
       inkscape:collect="always"
       id="filter5557">
      <feGaussianBlur
         inkscape:collect="always"
         stdDeviation="0.4552002"
         id="feGaussianBlur5559" />
    </filter>
    <linearGradient
       inkscape:collect="always"
       xlink:href="#linearGradient3796"
       id="linearGradient3802"
       x1="65.01767"
       y1="1051.9664"
       x2="64.749115"
       y2="924.4046"
       gradientUnits="userSpaceOnUse" />
    <filter
       inkscape:collect="always"
       id="filter3804">
      <feGaussianBlur
         inkscape:collect="always"
         stdDeviation="0.71245532"
         id="feGaussianBlur3806" />
    </filter>
  </defs>
  <sodipodi:namedview
     id="base"
     pagecolor="#ffffff"
     bordercolor="#666666"
     borderopacity="1.0"
     inkscape:pageopacity="0.0"
     inkscape:pageshadow="2"
     inkscape:zoom="2.83"
     inkscape:cx="43.117489"
     inkscape:cy="64.651443"
     inkscape:document-units="px"
     inkscape:current-layer="g3022"
     showgrid="false"
     inkscape:window-width="909"
     inkscape:window-height="929"
     inkscape:window-x="2278"
     inkscape:window-y="58"
     inkscape:window-maximized="0" />
  <metadata
     id="metadata7">
    <rdf:RDF>
      <cc:Work
         rdf:about="">
        <dc:format>image/svg+xml</dc:format>
        <dc:type
           rdf:resource="http://purl.org/dc/dcmitype/StillImage" />
        <dc:title>Logo Nubilo</dc:title>
        <cc:license
           rdf:resource="" />
        <dc:date>2013-10-05</dc:date>
        <dc:creator>
          <cc:Agent>
            <dc:title>Jürgen Fickel</dc:title>
          </cc:Agent>
        </dc:creator>
        <dc:contributor>
          <cc:Agent>
            <dc:title>Alexander Ellwein</dc:title>
          </cc:Agent>
        </dc:contributor>
        <dc:language>eo</dc:language>
      </cc:Work>
    </rdf:RDF>
  </metadata>
  <g
     style="display:inline"
     transform="translate(0,-924.36218)"
     id="g3022"
     inkscape:groupmode="layer"
     inkscape:label="Hintergrund">
    <rect
       style="fill:#dcdcdc;fill-opacity:1;stroke:url(#linearGradient3802);opacity:1"
       id="rect3026"
       width="128"
       height="128"
       x="0"
       y="924.36218"
       rx="15"
       ry="15" />
  </g>
  <g
     inkscape:label="Haus"
     inkscape:groupmode="layer"
     id="layer1"
     transform="translate(0,-924.36218)"
     style="display:none">
    <path
       id="path3761"
       style="fill:none;stroke:#007eff;stroke-width:1.50000072;stroke-linecap:butt;stroke-linejoin:miter;stroke-miterlimit:4;stroke-opacity:1;stroke-dasharray:none;filter:url(#filter3804)"
       d="m 45.61199,934.48625 -39.0000369,39.25 m 37.9842219,-39.25 39.000038,39.25 m -65.132162,-11.22573 53.45579,0 0,53.31498 -53.45579,0 z"
       inkscape:connector-curvature="0" />
  </g>
  <g
     style="display:inline"
     transform="translate(0,-924.36218)"
     id="g3808"
     inkscape:groupmode="layer"
     inkscape:label="Haus Kopie">
    <path
       style="fill:none;stroke:#4a708b;stroke-width:1.50000072000000007;stroke-linecap:butt;stroke-linejoin:miter;stroke-miterlimit:4;stroke-opacity:1;stroke-dasharray:none"
       d="m 18.464051,962.51052 53.45579,0 0,53.31498 -53.45579,0 z"
       id="path3810"
       inkscape:connector-curvature="0" />
    <path
       style="fill:#ee7600;fill-opacity:1;stroke:#ee7400;stroke-width:3;stroke-linecap:butt;stroke-linejoin:miter;stroke-miterlimit:4;stroke-opacity:1;stroke-dasharray:none"
       d="M 46.012037,931.58618 7.012,970.83618"
       id="path3822"
       inkscape:connector-curvature="0" />
    <path
       style="fill:#e6e6e6;fill-opacity:1;stroke:#ee7400;stroke-width:3;stroke-linecap:butt;stroke-linejoin:miter;stroke-miterlimit:4;stroke-opacity:1;stroke-dasharray:none"
       d="m 44.096,931.58618 39.000038,39.25"
       id="path3820"
       inkscape:connector-curvature="0" />
  </g>
  <g
     inkscape:groupmode="layer"
     id="layer6"
     inkscape:label="Wolke_Alexander"
     style="display:inline">
    <path
       style="fill:#ffffff;fill-opacity:1;stroke:#4a708b;stroke-width:7;stroke-linecap:round;stroke-linejoin:round;stroke-miterlimit:4;stroke-opacity:1;stroke-dasharray:none;stroke-dashoffset:0;display:inline"
       d="m 218.04305,131.7939 35,0 c 0,0 50,-5 40,-39.999997 -10,-35 -32.0943,-17.09431 -40,-25 -5,-5 -5,-30.000001 -35,-15.000001 -9.03943,4.519721 10,-15 0,-45.0000001 -3.53553,-10.6066 -20.67968,-33.1359399 -55,-39.9999999 -50,-10 -64.999998,34.9999999 -99.999998,45 -45.67921,-10.1496401 -70.0000002,-15.0000001 -85.000002,12 -15,27 5,33.000001 0,43.000001 -7.07107,14.14214 -15,-10 -35,0 -22.80351,11.40176 -13.93655,21.31219 -25,25 -15,5 -20,14.999997 -10,29.999997 6.20174,9.3026 31.36777,10 55,10 l 139.5,0 z"
       id="path3035"
       inkscape:connector-curvature="0"
       sodipodi:nodetypes="cszssssczssssscc"
       transform="matrix(0.24081099,0,0,0.24081075,50.103345,63.739136)" />
  </g>
  <g
     inkscape:groupmode="layer"
     id="layer7"
     inkscape:label="Schriftzug"
     style="display:inline">
    <text
       xml:space="preserve"
       style="font-size:40.00011063px;font-style:normal;font-variant:normal;font-weight:bold;font-stretch:normal;text-align:center;line-height:100%;letter-spacing:0px;word-spacing:0px;writing-mode:lr-tb;text-anchor:middle;fill:#1e1e1e;fill-opacity:1;stroke:none;display:inline;font-family:Linux Biolinum Keyboard;-inkscape-font-specification:Linux Biolinum Keyboard Bold"
       x="63.537907"
       y="120.07835"
       id="text5479"
       sodipodi:linespacing="100%"
       transform="scale(1.0000028,0.9999972)"><tspan
         sodipodi:role="line"
         id="tspan5481"
         x="63.537907"
         y="120.07835"
         style="font-size:22.00006104px;font-style:normal;font-variant:normal;font-weight:normal;font-stretch:normal;fill:#1e1e1e;fill-opacity:1;stroke:none;font-family:DejaVu Sans;-inkscape-font-specification:DejaVu Sans">NUBILO</tspan></text>
  </g>
  <g
     style="display:none"
     inkscape:label="Schriftzug_Pfad"
     id="g3016"
     inkscape:groupmode="layer">
    <g
       style="font-size:40px;font-style:normal;font-variant:normal;font-weight:bold;font-stretch:normal;text-align:center;line-height:100%;letter-spacing:0px;word-spacing:0px;writing-mode:lr-tb;text-anchor:middle;fill:#ee7400;fill-opacity:1;stroke:none;display:inline;filter:url(#filter5557);font-family:Linux Biolinum Keyboard;-inkscape-font-specification:Linux Biolinum Keyboard Bold"
       id="text3018">
      <path
         d="m 44.192691,95.943802 c 0.593999,0.044 0.902,0.066 1.21,0.066 0.945999,0 1.54,-0.132 2.112,-0.484 1.077999,-0.637999 2.178,-2.222002 2.882,-4.07 0.351999,-0.945999 0.484001,-1.430004 1.43,-5.236 l 0.814,3.41 c 0.637999,2.727997 1.166,4.334001 1.914,5.83 1.341998,2.727997 3.278002,4.07 5.874,4.07 1.121999,0 1.914001,-0.198001 2.904,-0.77 l -0.528,-1.958 c -0.308,0.725999 -0.462001,1.034 -0.748,1.364 -0.396,0.483999 -0.946001,0.77 -1.496,0.77 -1.385999,0 -2.662001,-1.078002 -3.784,-3.212 0.373999,-1.891998 0.572,-2.750002 1.122,-5.06 0.945999,-3.827996 1.43,-5.412002 2.134,-6.864 0.461999,-0.923999 0.990001,-1.276 2.002,-1.276 0.154,0 0.286,0 0.594,0.044 l 0.814,-1.474 c -0.264,-0.022 -0.506,-0.044 -0.682,-0.044 -0.923999,0 -1.914001,0.638001 -3.058,1.98 -1.055999,1.231999 -1.452001,2.354005 -2.53,7.106 -0.22,1.033999 -0.462001,2.068001 -0.704,3.124 -0.022,0.11 -0.132,0.572001 -0.33,1.254 -1.055999,-2.111998 -1.342003,-2.970009 -3.674,-11.682 l -0.748,0.682 c -0.528,-0.044 -0.814001,-0.066 -1.21,-0.066 -1.319999,0 -2.112001,0.242 -2.904,0.858 -1.407999,1.099999 -2.376,2.684001 -2.376,3.894 0,0.549999 0.154,1.122001 0.55,1.936 l 1.518,-1.034 c -0.55,-1.165999 -0.704,-1.672001 -0.704,-2.222 0,-0.659999 0.374,-1.254 0.99,-1.584 0.527999,-0.286 1.056001,-0.374 2.046,-0.374 0.461999,0 0.858001,0 1.694,0.044 -1.033999,4.421995 -1.870001,7.194001 -2.596,8.492 -0.462,0.813999 -0.946001,1.056 -2.112,1.056 -0.418,0 -0.748001,-0.022 -1.364,-0.088 l -1.056,1.518"
         style="font-size:22px;font-weight:500;fill:#ee7400;fill-opacity:1;font-family:URW Chancery L;-inkscape-font-specification:URW Chancery L Bold Italic"
         id="path3023"
         inkscape:connector-curvature="0" />
      <path
         d="m 60.499503,89.343802 c 0.923999,-0.462 1.342,-0.638 1.606,-0.638 0.176,0 0.308,0.176 0.308,0.418 0,0.286 -0.22,1.232001 -0.616,2.728 -0.549999,2.045998 -0.682,2.662001 -0.682,3.3 0,0.615999 0.264001,1.078 0.616,1.078 0.33,0 0.726001,-0.198001 1.826,-0.924 l 2.266,-1.474 c -0.176,0.703999 -0.308,1.496 -0.308,1.892 0,0.286 0.176,0.506 0.396,0.506 0.44,0 2.530002,-1.232001 4.026,-2.354 l 0.154,-0.66 c -1.715998,1.011999 -2.288,1.32 -2.53,1.32 -0.154,0 -0.242,-0.176 -0.242,-0.528 0,-1.121999 0.814001,-4.400003 1.76,-7.194 -0.285999,0.154 -0.484,0.264 -0.572,0.308 -0.264,0.132 -0.528,0.264 -0.814,0.396 -0.066,0.022 -0.198,0.088 -0.44,0.22 -0.132,0.505999 -0.572,2.266003 -1.298,5.302 -1.693998,1.165999 -2.464,1.606 -2.728,1.606 -0.242,0 -0.418,-0.308001 -0.418,-0.726 0,-0.506 0.176001,-1.386002 0.55,-2.794 0.242,-0.879999 0.396,-1.496 0.462,-1.804 0.198,-0.813999 0.352,-1.386 0.396,-1.54 0.066,-0.242 0.11,-0.44 0.11,-0.594 0,-0.176 -0.11,-0.286 -0.264,-0.286 -0.22,0 -1.826001,0.858001 -3.41,1.848 l -0.154,0.594"
         style="font-size:22px;font-weight:500;fill:#ee7400;fill-opacity:1;font-family:URW Chancery L;-inkscape-font-specification:URW Chancery L Bold Italic"
         id="path3025"
         inkscape:connector-curvature="0" />
      <path
         d="m 70.970128,96.317802 0.704,-0.594 c 0.616,0.22 1.078001,0.33 1.496,0.33 0.44,0 0.836001,-0.132 1.408,-0.484 0.462,-0.308 0.968001,-0.594 1.496,-0.902 0.769999,-0.418 1.254001,-0.902001 1.628,-1.606 0.704,-1.253999 1.232,-3.190001 1.232,-4.488 0,-1.011999 -0.506001,-1.672 -1.298,-1.672 -0.725999,0 -1.342002,0.330001 -3.542,1.892 0.132,-0.506 0.198,-0.858 0.242,-1.012 0.484,-2.375998 0.484,-2.376 0.55,-2.574 0.176,-0.703999 0.506,-1.562001 0.748,-1.98 0.374,-0.637999 0.770001,-0.836 1.606,-0.836 l 0.616,0 0.33,0 0.902,-1.276 c -0.307999,-0.044 -0.77,-0.066 -0.99,-0.066 -0.791999,0 -1.188002,0.242001 -3.036,1.76 -1.495998,1.209999 -1.496001,1.210003 -2.266,4.642 l -1.254,5.434 c -0.395999,1.715998 -0.44,1.936001 -0.792,3.344 l 0.22,0.088 m 2.904,-6.622 c 1.253999,-0.923999 2.024001,-1.32 2.53,-1.32 0.44,0 0.726,0.418001 0.726,1.078 0,0.879999 -0.264,2.200001 -0.638,3.146 -0.593999,1.473998 -1.364001,2.2 -2.332,2.2 -0.439999,0 -0.88,-0.132 -1.452,-0.418 l 1.166,-4.686"
         style="font-size:22px;font-weight:500;fill:#ee7400;fill-opacity:1;font-family:URW Chancery L;-inkscape-font-specification:URW Chancery L Bold Italic"
         id="path3027"
         inkscape:connector-curvature="0" />
      <path
         d="m 83.398409,85.075802 c 0.638,-0.572 0.682001,-0.616001 1.43,-1.188 -0.131999,-0.264 -0.242,-0.44 -0.286,-0.506 -0.131999,-0.264 -0.154,-0.286001 -0.33,-0.704 -0.044,-0.088 -0.088,-0.176 -0.132,-0.286 -0.109999,0.088 -0.242,0.176 -0.308,0.242 -0.088,0.088 -0.264,0.22 -0.484,0.396 -0.109999,0.088 -0.264,0.198 -0.462,0.33 -0.088,0.066 -0.176,0.132 -0.264,0.176 0.154,0.483999 0.352001,0.836001 0.836,1.54 m 1.518,8.316 c -2.089997,1.121999 -2.134,1.144 -2.42,1.144 -0.241999,0 -0.396,-0.242 -0.396,-0.616 0,-0.22 0.066,-0.638001 0.198,-1.122 1.121999,-4.619996 1.342,-5.5 1.342,-5.676 0,-0.132 -0.11,-0.22 -0.264,-0.22 -0.373999,0 -1.672001,0.726001 -3.476,1.936 l -0.044,0.616 c 1.297999,-0.703999 1.408001,-0.748 1.606,-0.748 0.176,0 0.264,0.132 0.264,0.396 0,0.286 -0.066,0.594001 -0.396,1.848 -1.033998,3.849996 -1.034,3.85 -1.034,4.4 0,0.527999 0.220001,0.88 0.528,0.88 0.374,0 0.968002,-0.286001 2.134,-1.034 0.418,-0.264 0.836001,-0.528 1.254,-0.814 0.198,-0.11 0.396001,-0.242 0.616,-0.374 l 0.088,-0.616"
         style="font-size:22px;font-weight:500;fill:#ee7400;fill-opacity:1;font-family:URW Chancery L;-inkscape-font-specification:URW Chancery L Bold Italic"
         id="path3029"
         inkscape:connector-curvature="0" />
      <path
         d="m 90.113566,93.105802 c -0.308,0.176 -0.506,0.308 -0.594,0.352 -1.583999,0.989999 -1.760001,1.078 -2.068,1.078 -0.198,0 -0.396,-0.264 -0.396,-0.572 l 0,-0.198 0,-0.198 c 0,-0.396 0.990001,-4.664003 1.804,-7.766 0.857999,-3.233997 1.056001,-3.63 2.024,-3.63 0.285999,0 0.506,0.022 1.078,0.154 l 0.946,-1.166 c -0.462,-0.11 -0.704001,-0.132 -0.99,-0.132 -0.879999,0 -1.584001,0.352001 -2.64,1.298 -0.967999,0.879999 -1.210001,1.210001 -1.496,2.002 -0.176,0.527999 -0.66,2.310001 -0.88,3.278 l -1.584,6.886 c -0.022,0.132 -0.044,0.264 -0.044,0.396 0,0.659999 0.374,1.342 0.726,1.342 l 0.132,0 0.066,0 c 0.22,0 1.144003,-0.638002 3.916,-2.64 l 0,-0.484"
         style="font-size:22px;font-weight:500;fill:#ee7400;fill-opacity:1;font-family:URW Chancery L;-inkscape-font-specification:URW Chancery L Bold Italic"
         id="path3031"
         inkscape:connector-curvature="0" />
      <path
         d="m 96.542722,86.901802 c -0.879999,0 -2.288001,0.638001 -3.586,1.606 -1.407999,1.055999 -2.398,3.344002 -2.398,5.522 0,1.341999 0.748001,2.2 1.914,2.2 0.615999,0 1.232001,-0.220001 2.244,-0.748 1.099999,-0.616 1.826,-1.166001 2.222,-1.694 0.879999,-1.187999 1.584,-3.344002 1.584,-4.862 0,-1.187999 -0.814001,-2.024 -1.98,-2.024 m -1.144,1.034 c 0.879999,0 1.43,0.858001 1.43,2.178 0,0.923999 -0.308001,2.068001 -0.858,3.146 -0.615999,1.253999 -1.408001,1.936 -2.244,1.936 -0.901999,0 -1.474,-0.814001 -1.474,-2.068 0,-2.551998 1.606002,-5.192 3.146,-5.192"
         style="font-size:22px;font-weight:500;fill:#ee7400;fill-opacity:1;font-family:URW Chancery L;-inkscape-font-specification:URW Chancery L Bold Italic"
         id="path3033"
         inkscape:connector-curvature="0" />
    </g>
  </g>
</svg>
