<?xml version="1.0" encoding="UTF-8" standalone="no"?>
<svg width="172px" height="172px" viewBox="0 0 172 172" version="1.1" xmlns="http://www.w3.org/2000/svg" xmlns:xlink="http://www.w3.org/1999/xlink" xmlns:sketch="http://www.bohemiancoding.com/sketch/ns">
    <!-- Generator: Sketch 3.1 (8751) - http://www.bohemiancoding.com/sketch -->
    <title>rand + wolke</title>
    <desc>Created with Sketch.</desc>
    <defs>
        <filter x="-50%" y="-50%" width="200%" height="200%" filterUnits="objectBoundingBox" id="filter-1">
            <feMorphology radius="1" in="SourceAlpha" operator="dilate" result="shadowSpreadOuter1"></feMorphology>
            <feOffset dx="2" dy="2" in="shadowSpreadOuter1" result="shadowOffsetOuter1"></feOffset>
            <feGaussianBlur stdDeviation="2.5" in="shadowOffsetOuter1" result="shadowBlurOuter1"></feGaussianBlur>
            <feColorMatrix values="0 0 0 0 0   0 0 0 0 0   0 0 0 0 0  0 0 0 0.35 0" in="shadowBlurOuter1" type="matrix" result="shadowMatrixOuter1"></feColorMatrix>
            <feMerge>
                <feMergeNode in="shadowMatrixOuter1"></feMergeNode>
                <feMergeNode in="SourceGraphic"></feMergeNode>
            </feMerge>
        </filter>
        <filter x="-50%" y="-50%" width="200%" height="200%" filterUnits="objectBoundingBox" id="filter-2">
            <feOffset dx="2" dy="2" in="SourceAlpha" result="shadowOffsetOuter1"></feOffset>
            <feGaussianBlur stdDeviation="2.5" in="shadowOffsetOuter1" result="shadowBlurOuter1"></feGaussianBlur>
            <feColorMatrix values="0 0 0 0 0   0 0 0 0 0   0 0 0 0 0  0 0 0 0.35 0" in="shadowBlurOuter1" type="matrix" result="shadowMatrixOuter1"></feColorMatrix>
            <feMerge>
                <feMergeNode in="shadowMatrixOuter1"></feMergeNode>
                <feMergeNode in="SourceGraphic"></feMergeNode>
            </feMerge>
        </filter>
    </defs>
    <g id="Page-1" stroke="none" stroke-width="1" fill="none" fill-rule="evenodd" sketch:type="MSPage">
        <g id="rand-+-wolke" sketch:type="MSLayerGroup" transform="translate(4.000000, 4.000000)">
            <rect id="rand" fill="#66B4D6" filter="url(#filter-1)" sketch:type="MSShapeGroup" x="0" y="0" width="160" height="160" rx="30"></rect>
            <path d="M122.403891,115.04029 L134.829665,115.04029 C134.829665,115.04029 152.58077,112.935011 149.030549,98.1980629 C145.480328,83.4611131 137.636363,91.0004061 134.829665,87.6716702 C133.054554,85.5663916 133.054554,75.0399985 122.403891,81.3558341 C119.194693,83.2588884 125.954112,75.0399985 122.403891,62.4083272 C121.148699,57.9423577 115.062147,48.4562505 102.877674,45.5660988 C85.1265686,41.3555417 79.8012376,60.3030486 67.3754636,64.5136057 C51.1583339,60.2400418 42.5239155,58.1977701 37.1985832,69.5662743 C31.8732514,80.9347784 38.9736937,83.4611131 37.1985832,87.6716702 C34.6881969,93.6262989 31.8732514,83.4611131 24.7728091,87.6716702 C16.6770588,92.4724463 19.8250257,96.6452894 15.8972563,98.1980629 C10.5719246,100.303341 8.79681399,104.513897 12.3470351,110.829733 C14.54879,114.746646 23.4832872,115.04029 31.8732514,115.04029 L81.3988364,115.04029 L122.403891,115.04029 Z" id="wolke" fill="#FFFFFF" filter="url(#filter-2)" sketch:type="MSShapeGroup"></path>
        </g>
    </g>
</svg>