<?xml version="1.0" encoding="UTF-8" standalone="no"?>
<svg width="288px" height="174px" viewBox="0 0 288 174" version="1.1" xmlns="http://www.w3.org/2000/svg" xmlns:xlink="http://www.w3.org/1999/xlink">
    <title>nubilo</title>
    <desc></desc>
    <defs>
        <radialGradient cx="51.4971676%" cy="36.743417%" fx="51.4971676%" fy="36.743417%" r="50.0000009%" id="radialGradient-1">
            <stop stop-color="#00CCFF" offset="0%"></stop>
            <stop stop-color="#AAEEFF" offset="100%"></stop>
        </radialGradient>
        <linearGradient x1="49.4921113%" y1="16.5712729%" x2="50.6320047%" y2="114.48035%" id="linearGradient-2">
            <stop stop-color="#FFFFFF" stop-opacity="0.85245901" offset="0%"></stop>
            <stop stop-color="#AAEEFF" stop-opacity="0" offset="100%"></stop>
        </linearGradient>
    </defs>
    <g id="Page-1" stroke="none" stroke-width="1" fill="none" fill-rule="evenodd">
        <g id="blue_cloud" transform="translate(1.000000, 0.000000)">
            <g id="layer1" transform="translate(0.514899, 0.556240)">
                <g id="g6986" transform="translate(0.007330, 0.124885)">
                    <path d="M139.567887,0.318122197 C138.677015,0.327810664 137.779599,0.358792694 136.880303,0.416849776 C125.679246,1.13997795 115.364694,5.73366599 107.360757,12.8236155 C97.8010802,5.40590096 85.7462397,1.23186744 72.8828923,2.06230942 C52.6468464,3.36872539 35.2838917,17.2909357 29.2562724,35.7832623 C13.3575939,41.8310628 1.5549146,57.1488826 0.329091928,74.8903531 C-0.501820434,86.9162322 3.43277809,98.1830972 10.4212444,107.075544 C10.3528705,107.689245 10.2995313,108.309514 10.2566984,108.929428 C8.42212765,135.48139 29.8107381,158.355469 56.0333856,160.048374 C61.8108305,160.421359 67.429586,159.792058 72.7293161,158.304187 C80.6101562,164.98277 90.6101818,169.288686 101.426132,169.986951 C115.337829,170.885075 128.31097,165.919129 138.19667,157.338851 C146.421259,165.367729 157.452318,170.623985 169.504282,171.402046 C185.847834,172.457169 200.898641,165.423936 211.167321,153.938234 C216.68103,156.575807 222.742735,158.224096 229.080891,158.633279 C257.858406,160.491123 282.608569,137.278313 284.335426,108.830701 C284.927791,99.0722597 282.828501,89.6172783 278.664075,81.2308576 C279.39118,78.5109646 279.880416,75.7046161 280.07917,72.8280437 C281.5356,51.7489773 268.352391,32.9837449 249.736895,25.2961995 C239.462848,13.6252027 224.291338,6.44957696 207.799613,7.51426569 C197.13297,8.20289099 187.261223,12.3903374 179.431889,18.9118161 C169.703103,7.46909497 155.342862,0.146618791 139.567887,0.318122197 L139.567887,0.318122197 Z" id="path6804" stroke="#7CA2CE" stroke-width="0.5" fill="url(#radialGradient-1)"></path>
                    <path d="M139.593642,2.30547939 C138.716945,2.31502744 137.833802,2.34550399 136.948813,2.40263786 C125.925954,3.11425922 115.775495,7.63486955 107.898888,14.6120256 C98.4912992,7.31232084 86.6282341,3.20468842 73.9695286,4.02191758 C54.055414,5.30755249 36.9686834,19.0082761 31.036956,37.2064103 C15.3912065,43.1580001 3.77629389,58.2321304 2.56997101,75.6913576 C2.49482923,76.7788774 2.45926273,77.8562454 2.46201833,78.9299205 C66.690455,66.145582 160.248245,56.848484 277.977514,70.6068118 C278.009703,51.1199571 265.4256,34.0782151 248.009992,26.8861892 C237.899393,15.4008598 222.969245,8.33938955 206.739881,9.38714102 C196.242933,10.0648106 186.528234,14.1856418 178.823457,20.6033697 C169.249444,9.34268991 155.117658,2.1367035 139.593642,2.30547939 L139.593642,2.30547939 Z" id="path6968" fill="url(#linearGradient-2)"></path>
                </g>
            </g>
        </g>
        <g id="gopher" transform="translate(99.000000, 33.000000)">
            <g id="Group-2" transform="translate(49.778761, 0.000000)" stroke="#000000" stroke-width="1.16324" fill="#FFFFFF">
                <path d="M0.067300885,21.1319255 C4.38331858,46.1765963 45.394646,39.5547826 39.5040265,14.2958509 C34.2219027,-8.35458385 -1.36712389,-2.08496894 0.067300885,21.1319255" id="Shape"></path>
            </g>
            <path d="M0.837477876,25.1826087 C6.43141593,46.9863354 41.4027876,41.4040248 40.084646,19.5327205 C38.5052655,-6.66156522 -4.51075221,-1.60715528 0.837477876,25.1826087" id="Shape" stroke="#000000" stroke-width="1.12856" fill="#FFFFFF"></path>
            <path d="M54.7940708,51.1848944 C54.8123894,54.4409441 55.535177,58.0964969 54.9183186,61.5604472 C54.0856195,63.1314286 52.4520796,63.2975901 51.0439381,63.9324224 C49.0965929,63.627528 47.4590708,62.3511056 46.6781416,60.5328696 C46.1783628,56.5791801 46.8645133,52.7511056 46.9907522,48.7958261 L54.7940708,51.1848944 L54.7940708,51.1848944 Z" id="Shape" stroke="#000000" stroke-width="1.2" fill="#FFFFFF"></path>
            <g id="Group" transform="translate(4.380531, 15.105590)">
                <ellipse id="Oval" fill="#000000" cx="6.10247788" cy="6.52084472" rx="5.90535398" ry="6.38489441"></ellipse>
                <ellipse id="Oval" fill="#FFFFFF" cx="8.78853982" cy="7.96183851" rx="1.39221239" ry="1.62265839"></ellipse>
            </g>
            <g id="Group" transform="translate(53.761062, 13.515528)">
                <ellipse id="Oval" fill="#000000" cx="6.20084071" cy="6.52084472" rx="5.80699115" ry="6.38489441"></ellipse>
                <ellipse id="Oval" fill="#FFFFFF" cx="8.84230088" cy="7.96183851" rx="1.36911504" ry="1.62265839"></ellipse>
            </g>
            <path d="M37.9182743,50.8303106 C35.3417257,57.063354 39.3550885,69.5274534 46.3460177,60.3341118 C45.8462389,56.3804224 46.5323894,52.5523478 46.6586283,48.5970683 L37.9182743,50.8303106 L37.9182743,50.8303106 Z" id="Shape" stroke="#000000" stroke-width="1.2" fill="#FFFFFF"></path>
            <g id="Group" transform="translate(31.460177, 31.403727)">
                <path d="M7.33977876,7.42280745 C2.53752212,7.83145342 -1.38783186,13.5310311 1.1090708,18.0400497 C4.41557522,24.012323 11.7959735,17.5117516 16.3927434,18.1207453 C21.6832301,18.2288696 26.0179646,23.704646 30.2670796,19.110559 C34.9928761,14.0008944 28.2325221,9.02439752 22.9488053,6.79950311 L7.33977876,7.42280745 L7.33977876,7.42280745 Z" id="Shape" stroke="#231F20" stroke-width="1.2" fill="#F6D2A2"></path>
                <path d="M6.73526549,7.1731677 C6.37964602,-1.13132919 22.2415487,-2.16963975 24.114823,4.78171429 C25.9833186,11.7167702 7.51619469,13.3275031 6.73526549,7.1731677 C6.1120354,2.25868323 6.73526549,7.1731677 6.73526549,7.1731677 L6.73526549,7.1731677 Z" id="Shape" fill="#000000"></path>
            </g>
        </g>
    </g>
</svg>